<svg width="30" height="30" viewBox="0 0 30 30" fill="none" xmlns="http://www.w3.org/2000/svg">
<g clip-path="url(#clip0_3164_1650)">
<path d="M15 30C23.2843 30 30 23.2843 30 15C30 6.71573 23.2843 0 15 0C6.71573 0 0 6.71573 0 15C0 23.2843 6.71573 30 15 30Z" fill="#175868"/>
<path d="M18.6778 14.9827H16.305V24H12.7098V14.9827H11V11.8136H12.7098V9.76288C12.7098 8.29638 13.3814 6 16.337 6L19 6.01156V9.08766H17.0678C16.7509 9.08766 16.3052 9.25192 16.3052 9.95148V11.8166H18.9919L18.6778 14.9827Z" fill="white"/>
</g>
<defs>
<clipPath id="clip0_3164_1650">
<rect width="30" height="30" fill="white"/>
</clipPath>
</defs>
</svg>
