<svg width="30" height="30" viewBox="0 0 30 30" fill="none" xmlns="http://www.w3.org/2000/svg">
<circle cx="15" cy="15" r="15" fill="#175868"/>
<g clip-path="url(#clip0_3164_1611)">
<path d="M15 6C13.22 6 11.4799 6.52784 9.99987 7.51677C8.51983 8.50571 7.36628 9.91131 6.68509 11.5558C6.0039 13.2004 5.82567 15.01 6.17294 16.7558C6.5202 18.5016 7.37737 20.1053 8.63604 21.364C9.89472 22.6226 11.4984 23.4798 13.2442 23.8271C14.99 24.1743 16.7996 23.9961 18.4442 23.3149C20.0887 22.6337 21.4943 21.4802 22.4832 20.0001C23.4722 18.5201 24 16.78 24 15C23.9974 12.6138 23.0484 10.3262 21.3611 8.63889C19.6738 6.95162 17.3862 6.00258 15 6ZM17.4165 11.25H12.5835C13.2201 9.9932 14.0339 8.83437 15 7.809C15.9665 8.83408 16.7803 9.99297 17.4165 11.25ZM18.0165 12.75C18.247 13.478 18.3673 14.2364 18.3735 15C18.3673 15.7636 18.247 16.522 18.0165 17.25H11.982C11.7515 16.522 11.6312 15.7636 11.625 15C11.6312 14.2364 11.7515 13.478 11.982 12.75H18.0165ZM13.05 7.767C12.1857 8.82434 11.4724 9.99652 10.9305 11.25H8.51475C9.50915 9.53732 11.1387 8.28582 13.05 7.767ZM7.5 15C7.49993 14.2368 7.61653 13.478 7.84575 12.75H10.425C10.2306 13.4844 10.1298 14.2404 10.125 15C10.1298 15.7596 10.2306 16.5156 10.425 17.25H7.84575C7.61653 16.522 7.49993 15.7632 7.5 15ZM8.51475 18.75H10.9305C11.4724 20.0035 12.1857 21.1757 13.05 22.233C11.1387 21.7142 9.50915 20.4627 8.51475 18.75ZM12.5835 18.75H17.4165C16.7799 20.0068 15.9661 21.1656 15 22.191C14.0335 21.1659 13.2197 20.007 12.5835 18.75ZM16.9538 22.233C17.8167 21.1754 18.5287 20.0033 19.0695 18.75H21.4853C20.4917 20.4619 18.8636 21.7133 16.9538 22.233ZM22.5 15C22.5001 15.7632 22.3835 16.522 22.1543 17.25H19.575C19.7694 16.5156 19.8702 15.7596 19.875 15C19.8702 14.2404 19.7694 13.4844 19.575 12.75H22.1528C22.3825 13.4779 22.4996 14.2367 22.5 15ZM19.0695 11.25C18.5287 9.99674 17.8167 8.82456 16.9538 7.767C18.8636 8.2867 20.4917 9.5381 21.4853 11.25H19.0695Z" fill="white"/>
</g>
<defs>
<clipPath id="clip0_3164_1611">
<rect width="18" height="18" fill="white" transform="translate(6 6)"/>
</clipPath>
</defs>
</svg>
